<svg xmlns="http://www.w3.org/2000/svg" xmlns:xlink="http://www.w3.org/1999/xlink" width="1200" height="1673" viewBox="0 0 1200 1673"><defs><clipPath id="b"><rect width="1200" height="1673"/></clipPath></defs><g id="a" clip-path="url(#b)"><rect width="1200" height="1673" fill="#fff"/><g transform="translate(-14.5 -5626.62)"><g transform="translate(167.598 5858.649)"><text transform="translate(801.902 1071.971)" fill="#707070" font-size="16" font-family="Avenir-Book, Avenir"><tspan x="0" y="16">This is a </tspan><tspan x="0" y="41">popover</tspan></text><g transform="translate(626.268 1038.374)"><text transform="translate(31.634 15.598)" fill="#666" font-size="20" font-family="BodoniSvtyTwoITCTT-Book, 'Bodoni \37 2'" letter-spacing="0.005em"><tspan x="9.99" y="19">ADD TO </tspan><tspan x="20.32" y="49">MEAL </tspan><tspan x="22.09" y="79">PLAN</tspan></text><g transform="translate(-0.366 -0.402)" fill="none" stroke="#f79544" stroke-width="1"><rect width="156" height="117" rx="30" stroke="none"/><rect x="0.5" y="0.5" width="155" height="116" rx="29.5" fill="none"/></g></g><g transform="translate(709.438 946.185) rotate(90)"><path d="M29.679,77.4h0V.595h0Z" transform="translate(-0.214 2.536)" fill="none" stroke="#707070" stroke-width="2"/><g transform="translate(91.786 -0.464) rotate(90)" fill="#707070"><path d="M 5.116899967193604 4.5 L 0.8830999732017517 4.5 L 3 0.971833348274231 L 5.116899967193604 4.5 Z" stroke="none"/><path d="M 3 1.943650007247925 L 1.766190052032471 4 L 4.233809947967529 4 L 3 1.943650007247925 M 3 0 L 6 5 L 0 5 L 3 0 Z" stroke="none" fill="#707070"/></g></g><g transform="translate(518.047 1214.733)"><text transform="translate(30.562 30.564)" fill="#666" font-size="20" font-family="BodoniSvtyTwoITCTT-Book, 'Bodoni \37 2'" letter-spacing="0.005em"><tspan x="3.267" y="19">GROCERY </tspan><tspan x="27.827" y="49">LIST</tspan></text><g transform="translate(-0.145 0.238)" fill="none" stroke="#f79544" stroke-width="1"><rect width="156" height="116" rx="30" stroke="none"/><rect x="0.5" y="0.5" width="155" height="115" rx="29.5" fill="none"/></g></g><g transform="translate(593.201 946.163)"><line x2="263.643" transform="translate(2.952) rotate(90)" fill="none" stroke="#707070" stroke-width="2"/><g transform="translate(5.702 268.808) rotate(180)" fill="#707070"><path d="M 5.116899967193604 4.5 L 0.8830999732017517 4.5 L 3 0.971833348274231 L 5.116899967193604 4.5 Z" stroke="none"/><path d="M 3 1.943650007247925 L 1.766190052032471 4 L 4.233809947967529 4 L 3 1.943650007247925 M 3 0 L 6 5 L 0 5 L 3 0 Z" stroke="none" fill="#707070"/></g></g><text transform="translate(327.863 1071.126)" fill="#707070" font-size="16" font-family="Avenir-Book, Avenir"><tspan x="0" y="16">This is a </tspan><tspan x="0" y="41">popover</tspan></text><g transform="translate(409.827 1038.374)"><text transform="translate(13.185 29.79)" fill="#666" font-size="20" font-family="BodoniSvtyTwoITCTT-Book, 'Bodoni \37 2'" letter-spacing="0.005em"><tspan x="28.963" y="19">ADD TO </tspan><tspan x="3.903" y="49">COLLECTION</tspan></text><g transform="translate(0.076 -0.402)" fill="none" stroke="#f79544" stroke-width="1"><rect width="155" height="117" rx="30" stroke="none"/><rect x="0.5" y="0.5" width="154" height="116" rx="29.5" fill="none"/></g></g><g transform="translate(568.15 946.186) rotate(90)"><path d="M29.679,77.4V.6h0V77.4h0v0Z" transform="translate(-0.215 0.247)" fill="none" stroke="#707070" stroke-width="2"/><g transform="translate(91.785 74.247) rotate(90)" fill="#707070"><path d="M 5.116899967193604 4.5 L 0.8830999732017517 4.5 L 3 0.971833348274231 L 5.116899967193604 4.5 Z" stroke="none"/><path d="M 3 1.943650007247925 L 1.766190052032471 4 L 4.233809947967529 4 L 3 1.943650007247925 M 3 0 L 6 5 L 0 5 L 3 0 Z" stroke="none" fill="#707070"/></g></g><text transform="translate(828.18 966.226)" fill="#707070" font-size="16" font-family="Avenir-Book, Avenir"><tspan x="0" y="16">This is a </tspan><tspan x="0" y="41">popover</tspan></text><g transform="translate(781.585 829.948)"><text transform="translate(0.317 31.024)" fill="#666" font-size="20" font-family="BodoniSvtyTwoITCTT-Book, 'Bodoni \37 2'" letter-spacing="0.005em"><tspan x="13.04" y="19">WRITE RECIPE </tspan><tspan x="43.14" y="49">RATING</tspan></text><g transform="translate(0.317 0.024)" fill="none" stroke="#f79544" stroke-width="1"><rect width="155" height="116" rx="30" stroke="none"/><rect x="0.5" y="0.5" width="154" height="115" rx="29.5" fill="none"/></g></g><g transform="translate(674.366 885.061)"><line x2="103" transform="translate(-0.464 2.911)" fill="none" stroke="#707070" stroke-width="2"/><g transform="translate(107.536 -0.089) rotate(90)" fill="#707070"><path d="M 5.116899967193604 4.5 L 0.8830999732017517 4.5 L 3 0.971833348274231 L 5.116899967193604 4.5 Z" stroke="none"/><path d="M 3 1.943650007247925 L 1.766190052032471 4 L 4.233809947967529 4 L 3 1.943650007247925 M 3 0 L 6 5 L 0 5 L 3 0 Z" stroke="none" fill="#707070"/></g></g><g transform="translate(255.511 829.948)"><text transform="translate(0.391 31.024)" fill="#666" font-size="20" font-family="BodoniSvtyTwoITCTT-Book, 'Bodoni \37 2'" letter-spacing="0.005em"><tspan x="18.5" y="19">VIEW RECIPE </tspan><tspan x="38.11" y="49">RATINGS</tspan></text><g transform="translate(0.391 0.024)" fill="none" stroke="#f79544" stroke-width="1"><rect width="155" height="116" rx="30" stroke="none"/><rect x="0.5" y="0.5" width="154" height="115" rx="29.5" fill="none"/></g></g><g transform="translate(410.829 885.062)"><line x1="102" transform="translate(5.073 2.91)" fill="none" stroke="#707070" stroke-width="2"/><g transform="translate(0.073 5.91) rotate(-90)" fill="#707070"><path d="M 5.116899967193604 4.5 L 0.8830999732017517 4.5 L 3 0.971833348274231 L 5.116899967193604 4.5 Z" stroke="none"/><path d="M 3 1.943650007247925 L 1.766190052032471 4 L 4.233809947967529 4 L 3 1.943650007247925 M 3 0 L 6 5 L 0 5 L 3 0 Z" stroke="none" fill="#707070"/></g></g><g transform="translate(518.047 829.948)"><text transform="translate(32.566 31.065)" fill="#666" font-size="20" font-family="BodoniSvtyTwoITCTT-Book, 'Bodoni \37 2'" letter-spacing="0.005em"><tspan x="13.113" y="19">RECIPE </tspan><tspan x="6.673" y="49">DETAILS</tspan></text><g transform="translate(-0.145 0.024)" fill="none" stroke="#f79544" stroke-width="1"><rect width="156" height="116" rx="30" stroke="none"/><rect x="0.5" y="0.5" width="155" height="115" rx="29.5" fill="none"/></g></g><g transform="translate(592.198 769.617)"><line x2="55.38" transform="translate(3.356) rotate(90)" fill="none" stroke="#707070" stroke-width="2"/><g transform="translate(5.704 60.354) rotate(180)" fill="#707070"><path d="M 5.116899967193604 4.5 L 0.8830999732017517 4.5 L 3 0.971833348274231 L 5.116899967193604 4.5 Z" stroke="none"/><path d="M 3 1.943650007247925 L 1.766190052032471 4 L 4.233809947967529 4 L 3 1.943650007247925 M 3 0 L 6 5 L 0 5 L 3 0 Z" stroke="none" fill="#707070"/></g></g><text transform="translate(694.407 687.261)" fill="#707070" font-size="16" font-family="Avenir-Book, Avenir"><tspan x="0" y="16">User has option to </tspan><tspan x="0" y="41">filter search results</tspan></text><g transform="translate(518.047 653.588)"><text transform="translate(32.566 16.032)" fill="#666" font-size="20" font-family="BodoniSvtyTwoITCTT-Book, 'Bodoni \37 2'" letter-spacing="0.005em"><tspan x="13.113" y="19">RECIPE </tspan><tspan x="8.993" y="49">SEARCH </tspan><tspan x="5.473" y="79">RESULTS</tspan></text><g transform="translate(-0.145 0.383)" fill="none" stroke="#f79544" stroke-width="1"><rect width="156" height="116" rx="30" stroke="none"/><rect x="0.5" y="0.5" width="155" height="115" rx="29.5" fill="none"/></g></g><g transform="translate(592.198 593.072)"><line x2="55.38" transform="translate(3.356) rotate(90)" fill="none" stroke="#707070" stroke-width="2"/><g transform="translate(5.704 60.899) rotate(180)" fill="#707070"><path d="M 5.116899967193604 4.5 L 0.8830999732017517 4.5 L 3 0.971833348274231 L 5.116899967193604 4.5 Z" stroke="none"/><path d="M 3 1.943650007247925 L 1.766190052032471 4 L 4.233809947967529 4 L 3 1.943650007247925 M 3 0 L 6 5 L 0 5 L 3 0 Z" stroke="none" fill="#707070"/></g></g><text transform="translate(694.407 510.761)" fill="#707070" font-size="16" font-family="Avenir-Book, Avenir"><tspan x="0" y="16">This is a </tspan><tspan x="0" y="41">popover</tspan></text><g transform="translate(518.047 477.229)"><text transform="translate(32.566 31.063)" fill="#666" font-size="20" font-family="BodoniSvtyTwoITCTT-Book, 'Bodoni \37 2'" letter-spacing="0.005em"><tspan x="8.993" y="19">SEARCH </tspan><tspan x="8.083" y="49">RECIPES </tspan></text><g transform="translate(-0.145 -0.258)" fill="none" stroke="#f79544" stroke-width="1"><rect width="156" height="116" rx="30" stroke="none"/><rect x="0.5" y="0.5" width="155" height="115" rx="29.5" fill="none"/></g></g><g transform="translate(601.217 292.854) rotate(90)"><path d="M61.064,77.4h0V.595h0Z" transform="translate(0.118 2.315)" fill="none" stroke="#707070" stroke-width="2"/><g transform="translate(184.118 0.315) rotate(90)" fill="#707070"><path d="M 5.190985202789307 5.5 L 0.8090149760246277 5.5 L 3 1.118029952049255 L 5.190985202789307 5.5 Z" stroke="none"/><path d="M 3 2.236069917678833 L 1.618034839630127 5 L 4.381965160369873 5 L 3 2.236069917678833 M 3 0 L 6 6 L 0 6 L 3 0 Z" stroke="none" fill="#707070"/></g></g><g transform="translate(302.608 653.588)"><text transform="translate(32.294 31.383)" fill="#666" font-size="20" font-family="BodoniSvtyTwoITCTT-Book, 'Bodoni \37 2'" letter-spacing="0.005em"><tspan x="7.46" y="19">MARKET </tspan><tspan x="6.58" y="49">DETAILS</tspan></text><g transform="translate(0.294 0.383)" fill="none" stroke="#f79544" stroke-width="1"><rect width="155" height="116" rx="30" stroke="none"/><rect x="0.5" y="0.5" width="154" height="115" rx="29.5" fill="none"/></g></g><g transform="translate(376.759 593.072)"><line x2="55.38" transform="translate(2.752) rotate(90)" fill="none" stroke="#707070" stroke-width="2"/><g transform="translate(6.143 60.899) rotate(180)" fill="#707070"><path d="M 5.116899967193604 4.5 L 0.8830999732017517 4.5 L 3 0.971833348274231 L 5.116899967193604 4.5 Z" stroke="none"/><path d="M 3 1.943650007247925 L 1.766190052032471 4 L 4.233809947967529 4 L 3 1.943650007247925 M 3 0 L 6 5 L 0 5 L 3 0 Z" stroke="none" fill="#707070"/></g></g><g transform="translate(302.608 477.229)"><text transform="translate(32.294 15.742)" fill="#666" font-size="20" font-family="BodoniSvtyTwoITCTT-Book, 'Bodoni \37 2'" letter-spacing="0.005em"><tspan x="7.46" y="19">MARKET </tspan><tspan x="8.9" y="49">SEARCH </tspan><tspan x="5.38" y="79">RESULTS</tspan></text><g transform="translate(0.294 -0.258)" fill="none" stroke="#f79544" stroke-width="1"><rect width="155" height="116" rx="30" stroke="none"/><rect x="0.5" y="0.5" width="154" height="115" rx="29.5" fill="none"/></g></g><g transform="translate(459.931 292.852) rotate(90)"><path d="M61.063,77.4V.6h0V77.4h0v0Z" transform="translate(0.119 0.028)" fill="none" stroke="#707070" stroke-width="2"/><g transform="translate(184.119 74.028) rotate(90)" fill="#707070"><path d="M 5.190985202789307 5.5 L 0.8090149760246277 5.5 L 3 1.118029952049255 L 5.190985202789307 5.5 Z" stroke="none"/><path d="M 3 2.236069917678833 L 1.618034839630127 5 L 4.381965160369873 5 L 3 2.236069917678833 M 3 0 L 6 6 L 0 6 L 3 0 Z" stroke="none" fill="#707070"/></g></g><g transform="translate(743.508 353.976)"><text transform="translate(15.395 30.995)" fill="#666" font-size="20" font-family="BodoniSvtyTwoITCTT-Book, 'Bodoni \37 2'" letter-spacing="0.005em"><tspan x="10.8" y="19">VIEW MEAL </tspan><tspan x="39.09" y="49">PLAN</tspan></text><g transform="translate(0.395 -0.005)" fill="none" stroke="#f79544" stroke-width="1"><rect width="155" height="116" rx="30" stroke="none"/><rect x="0.5" y="0.5" width="154" height="115" rx="29.5" fill="none"/></g></g><g transform="translate(568.624 264.518)"><path d="M96.353,144.229h0V.6h0v0h0v143.63h0v0Z" transform="translate(0 0)" fill="none" stroke="#707070" stroke-width="2"/><g transform="translate(175.279 141.453) rotate(90)" fill="#707070"><path d="M 5.190985202789307 5.5 L 0.8090149760246277 5.5 L 3 1.118029952049255 L 5.190985202789307 5.5 Z" stroke="none"/><path d="M 3 2.236069917678833 L 1.618034839630127 5 L 4.381965160369873 5 L 3 2.236069917678833 M 3 0 L 6 6 L 0 6 L 3 0 Z" stroke="none" fill="#707070"/></g></g><g transform="translate(83.16 353.976)"><text transform="translate(-0.258 30.995)" fill="#666" font-size="20" font-family="BodoniSvtyTwoITCTT-Book, 'Bodoni \37 2'" letter-spacing="0.005em"><tspan x="24.26" y="19">FAVORITED</tspan><tspan x="39.99" y="49">RECIPES</tspan></text><g transform="translate(-0.258 -0.005)" fill="none" stroke="#f79544" stroke-width="1"><rect width="156" height="116" rx="30" stroke="none"/><rect x="0.5" y="0.5" width="155" height="115" rx="29.5" fill="none"/></g></g><g transform="translate(238.477 264.518)"><path d="M96.351,143.861h0V.308h0v0h0V143.861h0v0Z" transform="translate(174.548 144.46) rotate(180)" fill="none" stroke="#707070" stroke-width="2"/><g transform="translate(0.425 147.453) rotate(-90)" fill="#707070"><path d="M 5.116899967193604 4.5 L 0.8830999732017517 4.5 L 3 0.971833348274231 L 5.116899967193604 4.5 Z" stroke="none"/><path d="M 3 1.943650007247925 L 1.766190052032471 4 L 4.233809947967529 4 L 3 1.943650007247925 M 3 0 L 6 5 L 0 5 L 3 0 Z" stroke="none" fill="#707070"/></g></g><g transform="translate(743.508 176.615)"><text transform="translate(0 46.595)" fill="#666" font-size="20" font-family="BodoniSvtyTwoITCTT-Book, 'Bodoni \37 2'" letter-spacing="0.005em"><tspan x="12.058" y="19">COLLECTIONS</tspan></text><g transform="translate(0.395 0.356)" fill="none" stroke="#f79544" stroke-width="1"><rect width="155" height="116" rx="30" stroke="none"/><rect x="0.5" y="0.5" width="154" height="115" rx="29.5" fill="none"/></g></g><g transform="translate(568.15 208.681)"><line x2="170" transform="translate(-0.248 3.29)" fill="none" stroke="#707070" stroke-width="2"/><g transform="translate(175.752 0.29) rotate(90)" fill="#707070"><path d="M 5.190985202789307 5.5 L 0.8090149760246277 5.5 L 3 1.118029952049255 L 5.190985202789307 5.5 Z" stroke="none"/><path d="M 3 2.236069917678833 L 1.618034839630127 5 L 4.381965160369873 5 L 3 2.236069917678833 M 3 0 L 6 6 L 0 6 L 3 0 Z" stroke="none" fill="#707070"/></g></g><text transform="translate(-43.098 185.971)" fill="#707070" font-size="16" font-family="Avenir-Book, Avenir"><tspan x="0" y="16">User has </tspan><tspan x="0" y="41">option to filter </tspan><tspan x="0" y="66">recommended </tspan><tspan x="0" y="91">recipes</tspan></text><g transform="translate(83.16 176.615)"><text transform="translate(-0.258 31.356)" fill="#666" font-size="20" font-family="BodoniSvtyTwoITCTT-Book, 'Bodoni \37 2'" letter-spacing="0.005em"><tspan x="3.95" y="19">RECOMMENDED</tspan><tspan x="39.99" y="49">RECIPES</tspan></text><g transform="translate(-0.258 0.356)" fill="none" stroke="#f79544" stroke-width="1"><rect width="156" height="116" rx="30" stroke="none"/><rect x="0.5" y="0.5" width="155" height="115" rx="29.5" fill="none"/></g></g><g transform="translate(238.477 208.68)"><line x1="169" transform="translate(5.425 3.291)" fill="none" stroke="#707070" stroke-width="2"/><g transform="translate(0.425 6.291) rotate(-90)" fill="#707070"><path d="M 5.116899967193604 4.5 L 0.8830999732017517 4.5 L 3 0.971833348274231 L 5.116899967193604 4.5 Z" stroke="none"/><path d="M 3 1.943650007247925 L 1.766190052032471 4 L 4.233809947967529 4 L 3 1.943650007247925 M 3 0 L 6 5 L 0 5 L 3 0 Z" stroke="none" fill="#707070"/></g></g><g transform="translate(412.833 176.615)"><text transform="translate(32.069 48.356)" fill="#666" font-size="20" font-family="BodoniSvtyTwoITCTT-Book, 'Bodoni \37 2'" letter-spacing="0.005em"><tspan x="17.66" y="19">HOME</tspan></text><g transform="translate(0.069 0.356)" fill="none" stroke="#f79544" stroke-width="1"><rect width="155" height="116" rx="30" stroke="none"/><rect x="0.5" y="0.5" width="154" height="115" rx="29.5" fill="none"/></g></g><g transform="translate(706.868 115.503) rotate(90)"><path d="M27.528,216.113h0V.6h0V216.113h0v0Z" transform="translate(0 0)" fill="none" stroke="#707070" stroke-width="2"/><g transform="translate(61.042 213.051) rotate(90)" fill="#707070"><path d="M 5.134824275970459 4.886123180389404 L 0.8497603535652161 4.886123180389404 L 2.992292404174805 1.029567003250122 L 5.134824275970459 4.886123180389404 Z" stroke="none"/><path d="M 2.992292404174805 2.059130668640137 L 1.699518203735352 4.386123180389404 L 4.285066604614258 4.386123180389404 L 2.992292404174805 2.059130668640137 M 2.992292404174805 3.337860107421875e-06 L 5.984582424163818 5.386123180389404 L 2.384185791015625e-06 5.386123180389404 L 2.992292404174805 3.337860107421875e-06 Z" stroke="none" fill="#707070"/></g></g><g transform="translate(628.272 0.254)"><text transform="translate(32.065 30.562)" fill="#666" font-size="20" font-family="BodoniSvtyTwoITCTT-Book, 'Bodoni \37 2'" letter-spacing="0.005em"><tspan x="9.413" y="19">CREATE </tspan><tspan x="7.143" y="49">PROFILE</tspan></text><g transform="translate(-0.37 -0.283)" fill="none" stroke="#f79544" stroke-width="1"><rect width="156" height="117" rx="30" stroke="none"/><rect x="0.5" y="0.5" width="155" height="116" rx="29.5" fill="none"/></g></g><g transform="translate(568.15 54.365)"><line x2="55" transform="translate(-0.248 2.606)" fill="none" stroke="#707070" stroke-width="2"/><g transform="translate(59.752 -0.394) rotate(90)" fill="#707070"><path d="M 5.116899967193604 4.5 L 0.8830999732017517 4.5 L 3 0.971833348274231 L 5.116899967193604 4.5 Z" stroke="none"/><path d="M 3 1.943650007247925 L 1.766190052032471 4 L 4.233809947967529 4 L 3 1.943650007247925 M 3 0 L 6 5 L 0 5 L 3 0 Z" stroke="none" fill="#707070"/></g></g><g transform="translate(412.833 0.254)"><text transform="translate(32.069 30.717)" fill="#666" font-size="20" font-family="BodoniSvtyTwoITCTT-Book, 'Bodoni \37 2'" letter-spacing="0.005em"><tspan x="9.26" y="19">LOGIN / </tspan><tspan x="10.31" y="49">SIGN UP</tspan></text><g transform="translate(0.069 -0.283)" fill="none" stroke="#f79544" stroke-width="1"><rect width="155" height="117" rx="30" stroke="none"/><rect x="0.5" y="0.5" width="154" height="116" rx="29.5" fill="none"/></g></g></g><text transform="translate(356.5 5792.62)" fill="#666" font-size="60" font-family="BodoniSvtyTwoSCITCTT-Book, 'Bodoni \37 2 Smallcaps'" letter-spacing="0.005em"><tspan x="-232.14" y="0">User Flow Diagram</tspan></text></g><g transform="translate(60 60)" fill="none" stroke="#f9a747" stroke-width="1"><rect width="1080" height="1553" stroke="none"/><rect x="0.5" y="0.5" width="1079" height="1552" fill="none"/></g></g></svg>