<svg xmlns="http://www.w3.org/2000/svg" xmlns:xlink="http://www.w3.org/1999/xlink" width="353" height="113" viewBox="0 0 353 113">
  <defs>
    <clipPath id="clip-path">
      <rect id="Rectangle_2" data-name="Rectangle 2" width="99" height="91" transform="translate(306 44)" fill="none" stroke="#707070" stroke-width="1"/>
    </clipPath>
    <clipPath id="clip-path-2">
      <rect id="Rectangle_1" data-name="Rectangle 1" width="54" height="33" transform="translate(245 70)" fill="none" stroke="#707070" stroke-width="1"/>
    </clipPath>
    <clipPath id="clip-path-3">
      <rect id="Rectangle_3" data-name="Rectangle 3" width="184" height="108" transform="translate(49 59)" fill="none" stroke="#707070" stroke-width="1"/>
    </clipPath>
  </defs>
  <g id="signature" transform="translate(-49 -54)">
    <g id="Fae" transform="translate(-3 10)" clip-path="url(#clip-path)">
      <g id="signature-2" data-name="signature" transform="translate(54 47.897)">
        <path id="Path_1" data-name="Path 1" d="M345.308,130.313c1.88-3.345,2.675-19.337,7.3-14.291.282,6.609-3.676,12.26-3.291,18.912,3.85-5.451,16.35-10.92,15.318-.28.019,1.678,1.156,2.35,2.376,1.225,8.436-15.983,9.15,6.833,17.981-1.575,3.7-6.045,5.1-1.819,4.649,2.618,2.186,1.147,3.042-2.031,4.32-3.19,3.126-3.387,6.518,3.5,7.557,5.926.656,4.769-3.4,21-8.8,12.013-1.33-4.073,6.649-15.226-.907-11.313-1.88.926-3.787,1.126-5.451-.113-3.274-2.668-7.333,1.246-10.6-1.991-3.935.5-7.881,2.665-12.164,1.662-2-.5-2.712-4.466-5.281-2.473-2.886,1.909-6.059-.066-9.042,1.683-6.346,1.225-1.84-6.139-10.612.736C326.413,141.83,340.593,117.12,345.308,130.313Zm-4.809,1.88c-1.561.39-3.272,2.32-2.821,3.371C339.6,137.562,341.766,134.741,340.5,132.193Z" transform="translate(-255.34 -88.006)"/>
        <path id="Path_2" data-name="Path 2" d="M1130.021,33.236c17.558-4.936,11.686.364-.362,4.6-5.206,6.842-5.926,17.118-9.8,25.042-1.41,2.933-3.225,18.834-6.111,11.8,1.88-12.009,7.1-22.611,10.443-34.291-3.439.026-8.556,3.056-10.342-.639-.353-2.132,1.8-1.9,3.081-2.233,13.287.266,11.322-14.963,14.973-24.21,7.051-32.622-57.586,23.053-29.559,16.63-3.834,8.448-18.515,4.536-7.933-7.757C1116.652-3.709,1148.552-14.744,1130.021,33.236Z" transform="translate(-834.296 -0.006)"/>
        <path id="Path_3" data-name="Path 3" d="M44.6,95.5C69,101.327,33.685,157.2,31.088,173c-4.137,4.137-.4-7.162.644-9.188,7.94-17.7,15.212-35.791,17.838-55.158.731-35.572-59.627,31.038-42.854,35.421,12.251-2.179,18.8-14.321,27.787-19.744-2.912,11.6-19.389,18.334-30.074,22.832-10.293.987.327-15.718,2.224-20.313C14.809,112.5,28.046,99.033,44.6,95.5Z" transform="translate(-0.001 -73.055)"/>
        <path id="Path_4" data-name="Path 4" d="M864.89,148.281c2.487.153,11.785-5.521,9.707-.235-8.589,5.336-20.449,5.171-29.938,2.318-5.239-2.637-9.91,4.466-14.961-.11-4.72-7.136,4.6-.491,7.7-2.651a2.445,2.445,0,0,0,1.737-3.2c-2.929-5.237,8.227-17.788,9.515-8.631-3.662,11.155-5.439,11.8,7.67,12.779C860.986,142.428,866.672,133.889,864.89,148.281Z" transform="translate(-633.68 -101.369)"/>
        <path id="Path_5" data-name="Path 5" d="M1345.748,143.865c2.585-.82,7.667-.235,4.026,2.475-6.633,1.9-13.036-2.16-19.319,1.229-3.669,3.081-7.286-.294-11.259-.357-4.964,1.77-7.726-5.011-4.148-7.865,19.443-7.653,4.762,7.343,12.5,5.62,1.925-.705,5.58-.653,4.957-3.657-1.26-4.534,8.241-6.346,7.051-.47C1339.18,144.281,1343.677,143.207,1345.748,143.865Z" transform="translate(-1004.71 -104.896)"/>
        <path id="Path_6" data-name="Path 6" d="M257.175,166.217c-7.07-.259-4.09-6.144-2.865-10.175a2.349,2.349,0,1,0-4.435-.94c-.174,3.965-4.981,17.563-9.348,10.859-1.288-6.142,4.976-8.852,6.748-13.962,1.5-4.955,12.946-5,10.772,1.763C251.809,166,261.923,162.9,257.175,166.217Z" transform="translate(-183.859 -113.568)"/>
        <path id="Path_7" data-name="Path 7" d="M644.63,186.564c3.85-.066,4.367.444,4.388,3.923.247,8.556,13.553-3.829,11.809,2.423-3.22,3.03-8.227,5.281-12.549,3.291-2.3-1.791-4.466-3.5-7.665-3.542C636.075,191.239,641.657,185.485,644.63,186.564Z" transform="translate(-488.729 -142.612)"/>
      </g>
    </g>
    <g id="le" transform="translate(-3 3)" clip-path="url(#clip-path-2)">
      <g id="signature-3" data-name="signature" transform="translate(54 47.897)">
        <path id="Path_1-2" data-name="Path 1" d="M345.308,130.313c1.88-3.345,2.675-19.337,7.3-14.291.282,6.609-3.676,12.26-3.291,18.912,3.85-5.451,16.35-10.92,15.318-.28.019,1.678,1.156,2.35,2.376,1.225,8.436-15.983,9.15,6.833,17.981-1.575,3.7-6.045,5.1-1.819,4.649,2.618,2.186,1.147,3.042-2.031,4.32-3.19,3.126-3.387,6.518,3.5,7.557,5.926.656,4.769-3.4,21-8.8,12.013-1.33-4.073,6.649-15.226-.907-11.313-1.88.926-3.787,1.126-5.451-.113-3.274-2.668-7.333,1.246-10.6-1.991-3.935.5-7.881,2.665-12.164,1.662-2-.5-2.712-4.466-5.281-2.473-2.886,1.909-6.059-.066-9.042,1.683-6.346,1.225-1.84-6.139-10.612.736C326.413,141.83,340.593,117.12,345.308,130.313Zm-4.809,1.88c-1.561.39-3.272,2.32-2.821,3.371C339.6,137.562,341.766,134.741,340.5,132.193Z" transform="translate(-255.34 -88.006)"/>
        <path id="Path_2-2" data-name="Path 2" d="M1130.021,33.236c17.558-4.936,11.686.364-.362,4.6-5.206,6.842-5.926,17.118-9.8,25.042-1.41,2.933-3.225,18.834-6.111,11.8,1.88-12.009,7.1-22.611,10.443-34.291-3.439.026-8.556,3.056-10.342-.639-.353-2.132,1.8-1.9,3.081-2.233,13.287.266,11.322-14.963,14.973-24.21,7.051-32.622-57.586,23.053-29.559,16.63-3.834,8.448-18.515,4.536-7.933-7.757C1116.652-3.709,1148.552-14.744,1130.021,33.236Z" transform="translate(-834.296 -0.006)"/>
        <path id="Path_3-2" data-name="Path 3" d="M44.6,95.5C69,101.327,33.685,157.2,31.088,173c-4.137,4.137-.4-7.162.644-9.188,7.94-17.7,15.212-35.791,17.838-55.158.731-35.572-59.627,31.038-42.854,35.421,12.251-2.179,18.8-14.321,27.787-19.744-2.912,11.6-19.389,18.334-30.074,22.832-10.293.987.327-15.718,2.224-20.313C14.809,112.5,28.046,99.033,44.6,95.5Z" transform="translate(-0.001 -73.055)"/>
        <path id="Path_4-2" data-name="Path 4" d="M864.89,148.281c2.487.153,11.785-5.521,9.707-.235-8.589,5.336-20.449,5.171-29.938,2.318-5.239-2.637-9.91,4.466-14.961-.11-4.72-7.136,4.6-.491,7.7-2.651a2.445,2.445,0,0,0,1.737-3.2c-2.929-5.237,8.227-17.788,9.515-8.631-3.662,11.155-5.439,11.8,7.67,12.779C860.986,142.428,866.672,133.889,864.89,148.281Z" transform="translate(-633.68 -101.369)"/>
        <path id="Path_5-2" data-name="Path 5" d="M1345.748,143.865c2.585-.82,7.667-.235,4.026,2.475-6.633,1.9-13.036-2.16-19.319,1.229-3.669,3.081-7.286-.294-11.259-.357-4.964,1.77-7.726-5.011-4.148-7.865,19.443-7.653,4.762,7.343,12.5,5.62,1.925-.705,5.58-.653,4.957-3.657-1.26-4.534,8.241-6.346,7.051-.47C1339.18,144.281,1343.677,143.207,1345.748,143.865Z" transform="translate(-1004.71 -104.896)"/>
        <path id="Path_6-2" data-name="Path 6" d="M257.175,166.217c-7.07-.259-4.09-6.144-2.865-10.175a2.349,2.349,0,1,0-4.435-.94c-.174,3.965-4.981,17.563-9.348,10.859-1.288-6.142,4.976-8.852,6.748-13.962,1.5-4.955,12.946-5,10.772,1.763C251.809,166,261.923,162.9,257.175,166.217Z" transform="translate(-183.859 -113.568)"/>
        <path id="Path_7-2" data-name="Path 7" d="M644.63,186.564c3.85-.066,4.367.444,4.388,3.923.247,8.556,13.553-3.829,11.809,2.423-3.22,3.03-8.227,5.281-12.549,3.291-2.3-1.791-4.466-3.5-7.665-3.542C636.075,191.239,641.657,185.485,644.63,186.564Z" transform="translate(-488.729 -142.612)"/>
      </g>
    </g>
    <g id="Jordanya" clip-path="url(#clip-path-3)">
      <g id="signature-4" data-name="signature" transform="translate(54 47.897)">
        <path id="Path_1-3" data-name="Path 1" d="M345.308,130.313c1.88-3.345,2.675-19.337,7.3-14.291.282,6.609-3.676,12.26-3.291,18.912,3.85-5.451,16.35-10.92,15.318-.28.019,1.678,1.156,2.35,2.376,1.225,8.436-15.983,9.15,6.833,17.981-1.575,3.7-6.045,5.1-1.819,4.649,2.618,2.186,1.147,3.042-2.031,4.32-3.19,3.126-3.387,6.518,3.5,7.557,5.926.656,4.769-3.4,21-8.8,12.013-1.33-4.073,6.649-15.226-.907-11.313-1.88.926-3.787,1.126-5.451-.113-3.274-2.668-7.333,1.246-10.6-1.991-3.935.5-7.881,2.665-12.164,1.662-2-.5-2.712-4.466-5.281-2.473-2.886,1.909-6.059-.066-9.042,1.683-6.346,1.225-1.84-6.139-10.612.736C326.413,141.83,340.593,117.12,345.308,130.313Zm-4.809,1.88c-1.561.39-3.272,2.32-2.821,3.371C339.6,137.562,341.766,134.741,340.5,132.193Z" transform="translate(-255.34 -88.006)"/>
        <path id="Path_2-3" data-name="Path 2" d="M1130.021,33.236c17.558-4.936,11.686.364-.362,4.6-5.206,6.842-5.926,17.118-9.8,25.042-1.41,2.933-3.225,18.834-6.111,11.8,1.88-12.009,7.1-22.611,10.443-34.291-3.439.026-8.556,3.056-10.342-.639-.353-2.132,1.8-1.9,3.081-2.233,13.287.266,11.322-14.963,14.973-24.21,7.051-32.622-57.586,23.053-29.559,16.63-3.834,8.448-18.515,4.536-7.933-7.757C1116.652-3.709,1148.552-14.744,1130.021,33.236Z" transform="translate(-834.296 -0.006)"/>
        <path id="Path_3-3" data-name="Path 3" d="M44.6,95.5C69,101.327,33.685,157.2,31.088,173c-4.137,4.137-.4-7.162.644-9.188,7.94-17.7,15.212-35.791,17.838-55.158.731-35.572-59.627,31.038-42.854,35.421,12.251-2.179,18.8-14.321,27.787-19.744-2.912,11.6-19.389,18.334-30.074,22.832-10.293.987.327-15.718,2.224-20.313C14.809,112.5,28.046,99.033,44.6,95.5Z" transform="translate(-0.001 -73.055)"/>
        <path id="Path_4-3" data-name="Path 4" d="M864.89,148.281c2.487.153,11.785-5.521,9.707-.235-8.589,5.336-20.449,5.171-29.938,2.318-5.239-2.637-9.91,4.466-14.961-.11-4.72-7.136,4.6-.491,7.7-2.651a2.445,2.445,0,0,0,1.737-3.2c-2.929-5.237,8.227-17.788,9.515-8.631-3.662,11.155-5.439,11.8,7.67,12.779C860.986,142.428,866.672,133.889,864.89,148.281Z" transform="translate(-633.68 -101.369)"/>
        <path id="Path_5-3" data-name="Path 5" d="M1345.748,143.865c2.585-.82,7.667-.235,4.026,2.475-6.633,1.9-13.036-2.16-19.319,1.229-3.669,3.081-7.286-.294-11.259-.357-4.964,1.77-7.726-5.011-4.148-7.865,19.443-7.653,4.762,7.343,12.5,5.62,1.925-.705,5.58-.653,4.957-3.657-1.26-4.534,8.241-6.346,7.051-.47C1339.18,144.281,1343.677,143.207,1345.748,143.865Z" transform="translate(-1004.71 -104.896)"/>
        <path id="Path_6-3" data-name="Path 6" d="M257.175,166.217c-7.07-.259-4.09-6.144-2.865-10.175a2.349,2.349,0,1,0-4.435-.94c-.174,3.965-4.981,17.563-9.348,10.859-1.288-6.142,4.976-8.852,6.748-13.962,1.5-4.955,12.946-5,10.772,1.763C251.809,166,261.923,162.9,257.175,166.217Z" transform="translate(-183.859 -113.568)"/>
        <path id="Path_7-3" data-name="Path 7" d="M644.63,186.564c3.85-.066,4.367.444,4.388,3.923.247,8.556,13.553-3.829,11.809,2.423-3.22,3.03-8.227,5.281-12.549,3.291-2.3-1.791-4.466-3.5-7.665-3.542C636.075,191.239,641.657,185.485,644.63,186.564Z" transform="translate(-488.729 -142.612)"/>
      </g>
    </g>
  </g>
</svg>
