<svg xmlns="http://www.w3.org/2000/svg" xmlns:xlink="http://www.w3.org/1999/xlink" width="1920" height="1080" viewBox="0 0 1920 1080"><defs><filter id="a" x="1674" y="542" width="169" height="69" filterUnits="userSpaceOnUse"><feOffset dx="3" dy="3" input="SourceAlpha"/><feGaussianBlur stdDeviation="3" result="b"/><feFlood flood-color="#6f87d0" flood-opacity="0.149"/><feComposite operator="in" in2="b"/><feComposite in="SourceGraphic"/></filter><filter id="c" x="1668" y="536" width="169" height="69" filterUnits="userSpaceOnUse"><feOffset dx="-3" dy="-3" input="SourceAlpha"/><feGaussianBlur stdDeviation="3" result="d"/><feFlood flood-color="#fff"/><feComposite operator="in" in2="d"/><feComposite in="SourceGraphic"/></filter><filter id="e" x="1479" y="542" width="169" height="69" filterUnits="userSpaceOnUse"><feOffset dx="3" dy="3" input="SourceAlpha"/><feGaussianBlur stdDeviation="3" result="f"/><feFlood flood-color="#6f87d0" flood-opacity="0.149"/><feComposite operator="in" in2="f"/><feComposite in="SourceGraphic"/></filter><filter id="g" x="1473" y="536" width="169" height="69" filterUnits="userSpaceOnUse"><feOffset dx="-3" dy="-3" input="SourceAlpha"/><feGaussianBlur stdDeviation="3" result="h"/><feFlood flood-color="#fff"/><feComposite operator="in" in2="h"/><feComposite in="SourceGraphic"/></filter><filter id="i" x="1284" y="542" width="169" height="69" filterUnits="userSpaceOnUse"><feOffset dx="3" dy="3" input="SourceAlpha"/><feGaussianBlur stdDeviation="3" result="j"/><feFlood flood-color="#6f87d0" flood-opacity="0.149"/><feComposite operator="in" in2="j"/><feComposite in="SourceGraphic"/></filter><filter id="k" x="1278" y="536" width="169" height="69" filterUnits="userSpaceOnUse"><feOffset dx="-3" dy="-3" input="SourceAlpha"/><feGaussianBlur stdDeviation="3" result="l"/><feFlood flood-color="#fff"/><feComposite operator="in" in2="l"/><feComposite in="SourceGraphic"/></filter><filter id="m" x="1089" y="542" width="169" height="69" filterUnits="userSpaceOnUse"><feOffset dx="3" dy="3" input="SourceAlpha"/><feGaussianBlur stdDeviation="3" result="n"/><feFlood flood-color="#6f87d0" flood-opacity="0.149"/><feComposite operator="in" in2="n"/><feComposite in="SourceGraphic"/></filter><filter id="o" x="1083" y="536" width="169" height="69" filterUnits="userSpaceOnUse"><feOffset dx="-3" dy="-3" input="SourceAlpha"/><feGaussianBlur stdDeviation="3" result="p"/><feFlood flood-color="#fff"/><feComposite operator="in" in2="p"/><feComposite in="SourceGraphic"/></filter><filter id="q" x="895" y="710" width="169" height="69" filterUnits="userSpaceOnUse"><feOffset dx="3" dy="3" input="SourceAlpha"/><feGaussianBlur stdDeviation="3" result="r"/><feFlood flood-color="#6f87d0" flood-opacity="0.149"/><feComposite operator="in" in2="r"/><feComposite in="SourceGraphic"/></filter><filter id="s" x="889" y="704" width="169" height="69" filterUnits="userSpaceOnUse"><feOffset dx="-3" dy="-3" input="SourceAlpha"/><feGaussianBlur stdDeviation="3" result="t"/><feFlood flood-color="#fff"/><feComposite operator="in" in2="t"/><feComposite in="SourceGraphic"/></filter><filter id="u" x="895" y="542" width="169" height="69" filterUnits="userSpaceOnUse"><feOffset dx="3" dy="3" input="SourceAlpha"/><feGaussianBlur stdDeviation="3" result="v"/><feFlood flood-color="#6f87d0" flood-opacity="0.149"/><feComposite operator="in" in2="v"/><feComposite in="SourceGraphic"/></filter><filter id="w" x="889" y="536" width="169" height="69" filterUnits="userSpaceOnUse"><feOffset dx="-3" dy="-3" input="SourceAlpha"/><feGaussianBlur stdDeviation="3" result="x"/><feFlood flood-color="#fff"/><feComposite operator="in" in2="x"/><feComposite in="SourceGraphic"/></filter><filter id="y" x="895" y="374" width="169" height="69" filterUnits="userSpaceOnUse"><feOffset dx="3" dy="3" input="SourceAlpha"/><feGaussianBlur stdDeviation="3" result="z"/><feFlood flood-color="#6f87d0" flood-opacity="0.149"/><feComposite operator="in" in2="z"/><feComposite in="SourceGraphic"/></filter><filter id="aa" x="889" y="368" width="169" height="69" filterUnits="userSpaceOnUse"><feOffset dx="-3" dy="-3" input="SourceAlpha"/><feGaussianBlur stdDeviation="3" result="ab"/><feFlood flood-color="#fff"/><feComposite operator="in" in2="ab"/><feComposite in="SourceGraphic"/></filter><filter id="ac" x="700" y="710" width="169" height="69" filterUnits="userSpaceOnUse"><feOffset dx="3" dy="3" input="SourceAlpha"/><feGaussianBlur stdDeviation="3" result="ad"/><feFlood flood-color="#6f87d0" flood-opacity="0.149"/><feComposite operator="in" in2="ad"/><feComposite in="SourceGraphic"/></filter><filter id="ae" x="694" y="704" width="169" height="69" filterUnits="userSpaceOnUse"><feOffset dx="-3" dy="-3" input="SourceAlpha"/><feGaussianBlur stdDeviation="3" result="af"/><feFlood flood-color="#fff"/><feComposite operator="in" in2="af"/><feComposite in="SourceGraphic"/></filter><filter id="ag" x="700" y="542" width="169" height="69" filterUnits="userSpaceOnUse"><feOffset dx="3" dy="3" input="SourceAlpha"/><feGaussianBlur stdDeviation="3" result="ah"/><feFlood flood-color="#6f87d0" flood-opacity="0.149"/><feComposite operator="in" in2="ah"/><feComposite in="SourceGraphic"/></filter><filter id="ai" x="694" y="536" width="169" height="69" filterUnits="userSpaceOnUse"><feOffset dx="-3" dy="-3" input="SourceAlpha"/><feGaussianBlur stdDeviation="3" result="aj"/><feFlood flood-color="#fff"/><feComposite operator="in" in2="aj"/><feComposite in="SourceGraphic"/></filter><filter id="ak" x="700" y="374" width="169" height="69" filterUnits="userSpaceOnUse"><feOffset dx="3" dy="3" input="SourceAlpha"/><feGaussianBlur stdDeviation="3" result="al"/><feFlood flood-color="#6f87d0" flood-opacity="0.149"/><feComposite operator="in" in2="al"/><feComposite in="SourceGraphic"/></filter><filter id="am" x="694" y="368" width="169" height="69" filterUnits="userSpaceOnUse"><feOffset dx="-3" dy="-3" input="SourceAlpha"/><feGaussianBlur stdDeviation="3" result="an"/><feFlood flood-color="#fff"/><feComposite operator="in" in2="an"/><feComposite in="SourceGraphic"/></filter><filter id="ao" x="505" y="710" width="169" height="69" filterUnits="userSpaceOnUse"><feOffset dx="3" dy="3" input="SourceAlpha"/><feGaussianBlur stdDeviation="3" result="ap"/><feFlood flood-color="#6f87d0" flood-opacity="0.149"/><feComposite operator="in" in2="ap"/><feComposite in="SourceGraphic"/></filter><filter id="aq" x="499" y="704" width="169" height="69" filterUnits="userSpaceOnUse"><feOffset dx="-3" dy="-3" input="SourceAlpha"/><feGaussianBlur stdDeviation="3" result="ar"/><feFlood flood-color="#fff"/><feComposite operator="in" in2="ar"/><feComposite in="SourceGraphic"/></filter><filter id="as" x="505" y="542" width="169" height="69" filterUnits="userSpaceOnUse"><feOffset dx="3" dy="3" input="SourceAlpha"/><feGaussianBlur stdDeviation="3" result="at"/><feFlood flood-color="#6f87d0" flood-opacity="0.149"/><feComposite operator="in" in2="at"/><feComposite in="SourceGraphic"/></filter><filter id="au" x="499" y="536" width="169" height="69" filterUnits="userSpaceOnUse"><feOffset dx="-3" dy="-3" input="SourceAlpha"/><feGaussianBlur stdDeviation="3" result="av"/><feFlood flood-color="#fff"/><feComposite operator="in" in2="av"/><feComposite in="SourceGraphic"/></filter><filter id="aw" x="505" y="374" width="169" height="69" filterUnits="userSpaceOnUse"><feOffset dx="3" dy="3" input="SourceAlpha"/><feGaussianBlur stdDeviation="3" result="ax"/><feFlood flood-color="#6f87d0" flood-opacity="0.149"/><feComposite operator="in" in2="ax"/><feComposite in="SourceGraphic"/></filter><filter id="ay" x="499" y="368" width="169" height="69" filterUnits="userSpaceOnUse"><feOffset dx="-3" dy="-3" input="SourceAlpha"/><feGaussianBlur stdDeviation="3" result="az"/><feFlood flood-color="#fff"/><feComposite operator="in" in2="az"/><feComposite in="SourceGraphic"/></filter><filter id="ba" x="310" y="542" width="169" height="69" filterUnits="userSpaceOnUse"><feOffset dx="3" dy="3" input="SourceAlpha"/><feGaussianBlur stdDeviation="3" result="bb"/><feFlood flood-color="#6f87d0" flood-opacity="0.149"/><feComposite operator="in" in2="bb"/><feComposite in="SourceGraphic"/></filter><filter id="bc" x="304" y="536" width="169" height="69" filterUnits="userSpaceOnUse"><feOffset dx="-3" dy="-3" input="SourceAlpha"/><feGaussianBlur stdDeviation="3" result="bd"/><feFlood flood-color="#fff"/><feComposite operator="in" in2="bd"/><feComposite in="SourceGraphic"/></filter><filter id="be" x="115" y="542" width="169" height="69" filterUnits="userSpaceOnUse"><feOffset dx="3" dy="3" input="SourceAlpha"/><feGaussianBlur stdDeviation="3" result="bf"/><feFlood flood-color="#6f87d0" flood-opacity="0.149"/><feComposite operator="in" in2="bf"/><feComposite in="SourceGraphic"/></filter><filter id="bg" x="109" y="536" width="169" height="69" filterUnits="userSpaceOnUse"><feOffset dx="-3" dy="-3" input="SourceAlpha"/><feGaussianBlur stdDeviation="3" result="bh"/><feFlood flood-color="#fff"/><feComposite operator="in" in2="bh"/><feComposite in="SourceGraphic"/></filter><clipPath id="bj"><rect width="1920" height="1080"/></clipPath></defs><g id="bi" clip-path="url(#bj)"><rect width="1920" height="1080" fill="#fff"/><path d="M0,0H1920V1080H0Z" fill="#fafbfc"/><g transform="translate(-50.965 -164.409)"><g transform="translate(172.459 544.574)"><g transform="translate(1558.506 167.835)"><g transform="matrix(1, 0, 0, 1, -1680, -548)" filter="url(#a)"><g transform="translate(1680 548)" fill="#fafbfc" stroke="#fafbfc" stroke-linejoin="bevel" stroke-width="10"><rect width="151" height="51" stroke="none"/><rect x="5" y="5" width="141" height="41" fill="none"/></g></g><g transform="matrix(1, 0, 0, 1, -1680, -548)" filter="url(#c)"><g transform="translate(1680 548)" fill="#fafbfc" stroke="#fafbfc" stroke-linejoin="bevel" stroke-width="10"><rect width="151" height="51" stroke="none"/><rect x="5" y="5" width="141" height="41" fill="none"/></g></g><g transform="translate(1 1)" fill="none" stroke="#6f87d0" stroke-linejoin="bevel" stroke-width="10"><rect width="149" height="123" stroke="none"/><rect x="5" y="5" width="139" height="113" fill="none"/></g><g transform="translate(2 2)" fill="#fafbfc" stroke="#fafbfc" stroke-linejoin="bevel" stroke-width="10"><rect width="147" height="121" stroke="none"/><rect x="5" y="5" width="137" height="111" fill="none"/></g><text transform="translate(74 57)" fill="#6f87d0" font-size="18" font-family="Optima-Regular, Optima"><tspan x="-29.997" y="0">ORDER</tspan><tspan x="-45.009" y="22">COMPLETE</tspan></text></g><line x2="28" transform="translate(1522.506 230.835)" fill="none" stroke="#6f87d0" stroke-width="1" opacity="0.502"/><g transform="translate(1363.506 167.835)"><g transform="matrix(1, 0, 0, 1, -1485, -548)" filter="url(#e)"><g transform="translate(1485 548)" fill="#fafbfc" stroke="#fafbfc" stroke-linejoin="bevel" stroke-width="10"><rect width="151" height="51" stroke="none"/><rect x="5" y="5" width="141" height="41" fill="none"/></g></g><g transform="matrix(1, 0, 0, 1, -1485, -548)" filter="url(#g)"><g transform="translate(1485 548)" fill="#fafbfc" stroke="#fafbfc" stroke-linejoin="bevel" stroke-width="10"><rect width="151" height="51" stroke="none"/><rect x="5" y="5" width="141" height="41" fill="none"/></g></g><g transform="translate(1 1)" fill="none" stroke="#6f87d0" stroke-linejoin="bevel" stroke-width="10"><rect width="149" height="123" stroke="none"/><rect x="5" y="5" width="139" height="113" fill="none"/></g><g transform="translate(2 2)" fill="#fafbfc" stroke="#fafbfc" stroke-linejoin="bevel" stroke-width="10"><rect width="147" height="121" stroke="none"/><rect x="5" y="5" width="137" height="111" fill="none"/></g><text transform="translate(75 57)" fill="#6f87d0" font-size="18" font-family="Optima-Regular, Optima"><tspan x="-49.851" y="0">CHECKOUT:</tspan><tspan x="-39.852" y="22">PAYMENT</tspan></text></g><line x2="28" transform="translate(1327.506 230.835)" fill="none" stroke="#6f87d0" stroke-width="1" opacity="0.502"/><g transform="translate(1168.506 167.835)"><g transform="matrix(1, 0, 0, 1, -1290, -548)" filter="url(#i)"><g transform="translate(1290 548)" fill="#fafbfc" stroke="#fafbfc" stroke-linejoin="bevel" stroke-width="10"><rect width="151" height="51" stroke="none"/><rect x="5" y="5" width="141" height="41" fill="none"/></g></g><g transform="matrix(1, 0, 0, 1, -1290, -548)" filter="url(#k)"><g transform="translate(1290 548)" fill="#fafbfc" stroke="#fafbfc" stroke-linejoin="bevel" stroke-width="10"><rect width="151" height="51" stroke="none"/><rect x="5" y="5" width="141" height="41" fill="none"/></g></g><g transform="translate(1 1)" fill="none" stroke="#6f87d0" stroke-linejoin="bevel" stroke-width="10"><rect width="149" height="123" stroke="none"/><rect x="5" y="5" width="139" height="113" fill="none"/></g><g transform="translate(2 2)" fill="#fafbfc" stroke="#fafbfc" stroke-linejoin="bevel" stroke-width="10"><rect width="147" height="121" stroke="none"/><rect x="5" y="5" width="137" height="111" fill="none"/></g><text transform="translate(75 46)" fill="#6f87d0" font-size="18" font-family="Optima-Regular, Optima"><tspan x="-49.851" y="0">CHECKOUT:</tspan><tspan x="-33.507" y="22">BILLING</tspan><tspan x="-39.006" y="44">ADDRESS</tspan></text></g><line x2="28" transform="translate(1132.506 230.835)" fill="none" stroke="#6f87d0" stroke-width="1" opacity="0.502"/><g transform="translate(973.506 167.835)"><g transform="matrix(1, 0, 0, 1, -1095, -548)" filter="url(#m)"><g transform="translate(1095 548)" fill="#fafbfc" stroke="#fafbfc" stroke-linejoin="bevel" stroke-width="10"><rect width="151" height="51" stroke="none"/><rect x="5" y="5" width="141" height="41" fill="none"/></g></g><g transform="matrix(1, 0, 0, 1, -1095, -548)" filter="url(#o)"><g transform="translate(1095 548)" fill="#fafbfc" stroke="#fafbfc" stroke-linejoin="bevel" stroke-width="10"><rect width="151" height="51" stroke="none"/><rect x="5" y="5" width="141" height="41" fill="none"/></g></g><g transform="translate(1 1)" fill="none" stroke="#6f87d0" stroke-linejoin="bevel" stroke-width="10"><rect width="149" height="123" stroke="none"/><rect x="5" y="5" width="139" height="113" fill="none"/></g><g transform="translate(2 2)" fill="#fafbfc" stroke="#fafbfc" stroke-linejoin="bevel" stroke-width="10"><rect width="147" height="121" stroke="none"/><rect x="5" y="5" width="137" height="111" fill="none"/></g><text transform="translate(74 46)" fill="#6f87d0" font-size="18" font-family="Optima-Regular, Optima"><tspan x="-49.851" y="0">CHECKOUT:</tspan><tspan x="-41.58" y="22">CONTACT</tspan><tspan x="-62.343" y="44">INFORMATION</tspan></text></g><line y1="97.745" x2="111.811" transform="translate(938.236 300.245)" fill="none" stroke="#6f87d0" stroke-width="1" opacity="0.502"/><g transform="translate(779.506 335.835)"><g transform="matrix(1, 0, 0, 1, -901, -716)" filter="url(#q)"><g transform="translate(901 716)" fill="#fafbfc" stroke="#fafbfc" stroke-linejoin="bevel" stroke-width="10"><rect width="151" height="51" stroke="none"/><rect x="5" y="5" width="141" height="41" fill="none"/></g></g><g transform="matrix(1, 0, 0, 1, -901, -716)" filter="url(#s)"><g transform="translate(901 716)" fill="#fafbfc" stroke="#fafbfc" stroke-linejoin="bevel" stroke-width="10"><rect width="151" height="51" stroke="none"/><rect x="5" y="5" width="141" height="41" fill="none"/></g></g><g transform="translate(1 1)" fill="none" stroke="#6f87d0" stroke-linejoin="bevel" stroke-width="10"><rect width="149" height="123" stroke="none"/><rect x="5" y="5" width="139" height="113" fill="none"/></g><g transform="translate(2 2)" fill="#fafbfc" stroke="#fafbfc" stroke-linejoin="bevel" stroke-width="10"><rect width="147" height="121" stroke="none"/><rect x="5" y="5" width="137" height="111" fill="none"/></g><text transform="translate(74 69)" fill="#6f87d0" font-size="18" font-family="Optima-Regular, Optima"><tspan x="-61.452" y="0">CART PREVIEW</tspan></text></g><line x2="28" transform="translate(938.506 230.835)" fill="none" stroke="#6f87d0" stroke-width="1" opacity="0.502"/><g transform="translate(779.506 167.835)"><g transform="matrix(1, 0, 0, 1, -901, -548)" filter="url(#u)"><g transform="translate(901 548)" fill="#fafbfc" stroke="#fafbfc" stroke-linejoin="bevel" stroke-width="10"><rect width="151" height="51" stroke="none"/><rect x="5" y="5" width="141" height="41" fill="none"/></g></g><g transform="matrix(1, 0, 0, 1, -901, -548)" filter="url(#w)"><g transform="translate(901 548)" fill="#fafbfc" stroke="#fafbfc" stroke-linejoin="bevel" stroke-width="10"><rect width="151" height="51" stroke="none"/><rect x="5" y="5" width="141" height="41" fill="none"/></g></g><g transform="translate(1 1)" fill="none" stroke="#6f87d0" stroke-linejoin="bevel" stroke-width="10"><rect width="149" height="123" stroke="none"/><rect x="5" y="5" width="139" height="113" fill="none"/></g><g transform="translate(2 2)" fill="#fafbfc" stroke="#fafbfc" stroke-linejoin="bevel" stroke-width="10"><rect width="147" height="121" stroke="none"/><rect x="5" y="5" width="137" height="111" fill="none"/></g><text transform="translate(74 69)" fill="#6f87d0" font-size="18" font-family="Optima-Regular, Optima"><tspan x="-61.452" y="0">CART PREVIEW</tspan></text></g><line x2="111.811" y2="97.745" transform="translate(938.236 62.213)" fill="none" stroke="#6f87d0" stroke-width="1" opacity="0.502"/><g transform="translate(779.506 -0.165)"><g transform="matrix(1, 0, 0, 1, -901, -380)" filter="url(#y)"><g transform="translate(901 380)" fill="#fafbfc" stroke="#fafbfc" stroke-linejoin="bevel" stroke-width="10"><rect width="151" height="51" stroke="none"/><rect x="5" y="5" width="141" height="41" fill="none"/></g></g><g transform="matrix(1, 0, 0, 1, -901, -380)" filter="url(#aa)"><g transform="translate(901 380)" fill="#fafbfc" stroke="#fafbfc" stroke-linejoin="bevel" stroke-width="10"><rect width="151" height="51" stroke="none"/><rect x="5" y="5" width="141" height="41" fill="none"/></g></g><g transform="translate(1 1)" fill="none" stroke="#6f87d0" stroke-linejoin="bevel" stroke-width="10"><rect width="149" height="123" stroke="none"/><rect x="5" y="5" width="139" height="113" fill="none"/></g><g transform="translate(2 2)" fill="#fafbfc" stroke="#fafbfc" stroke-linejoin="bevel" stroke-width="10"><rect width="147" height="121" stroke="none"/><rect x="5" y="5" width="137" height="111" fill="none"/></g><text transform="translate(74 69)" fill="#6f87d0" font-size="18" font-family="Optima-Regular, Optima"><tspan x="-61.452" y="0">CART PREVIEW</tspan></text></g><line x2="28" transform="translate(743.506 397.835)" fill="none" stroke="#6f87d0" stroke-width="1" opacity="0.502"/><g transform="translate(584.506 335.835)"><g transform="matrix(1, 0, 0, 1, -706, -716)" filter="url(#ac)"><g transform="translate(706 716)" fill="#fafbfc" stroke="#fafbfc" stroke-linejoin="bevel" stroke-width="10"><rect width="151" height="51" stroke="none"/><rect x="5" y="5" width="141" height="41" fill="none"/></g></g><g transform="matrix(1, 0, 0, 1, -706, -716)" filter="url(#ae)"><g transform="translate(706 716)" fill="#fafbfc" stroke="#fafbfc" stroke-linejoin="bevel" stroke-width="10"><rect width="151" height="51" stroke="none"/><rect x="5" y="5" width="141" height="41" fill="none"/></g></g><g transform="translate(1 1)" fill="none" stroke="#6f87d0" stroke-linejoin="bevel" stroke-width="10"><rect width="149" height="123" stroke="none"/><rect x="5" y="5" width="139" height="113" fill="none"/></g><g transform="translate(2 2)" fill="#fafbfc" stroke="#fafbfc" stroke-linejoin="bevel" stroke-width="10"><rect width="147" height="121" stroke="none"/><rect x="5" y="5" width="137" height="111" fill="none"/></g><text transform="translate(74 69)" fill="#6f87d0" font-size="18" font-family="Optima-Regular, Optima"><tspan x="-51.354" y="0">ITEM DETAIL</tspan></text></g><line x2="28" transform="translate(743.506 230.835)" fill="none" stroke="#6f87d0" stroke-width="1" opacity="0.502"/><g transform="translate(584.506 167.835)"><g transform="matrix(1, 0, 0, 1, -706, -548)" filter="url(#ag)"><g transform="translate(706 548)" fill="#fafbfc" stroke="#fafbfc" stroke-linejoin="bevel" stroke-width="10"><rect width="151" height="51" stroke="none"/><rect x="5" y="5" width="141" height="41" fill="none"/></g></g><g transform="matrix(1, 0, 0, 1, -706, -548)" filter="url(#ai)"><g transform="translate(706 548)" fill="#fafbfc" stroke="#fafbfc" stroke-linejoin="bevel" stroke-width="10"><rect width="151" height="51" stroke="none"/><rect x="5" y="5" width="141" height="41" fill="none"/></g></g><g transform="translate(1 1)" fill="none" stroke="#6f87d0" stroke-linejoin="bevel" stroke-width="10"><rect width="149" height="123" stroke="none"/><rect x="5" y="5" width="139" height="113" fill="none"/></g><g transform="translate(2 2)" fill="#fafbfc" stroke="#fafbfc" stroke-linejoin="bevel" stroke-width="10"><rect width="147" height="121" stroke="none"/><rect x="5" y="5" width="137" height="111" fill="none"/></g><text transform="translate(74 69)" fill="#6f87d0" font-size="18" font-family="Optima-Regular, Optima"><tspan x="-51.354" y="0">ITEM DETAIL</tspan></text></g><line x2="28" transform="translate(743.506 62.835)" fill="none" stroke="#6f87d0" stroke-width="1" opacity="0.502"/><g transform="translate(584.506 -0.165)"><g transform="matrix(1, 0, 0, 1, -706, -380)" filter="url(#ak)"><g transform="translate(706 380)" fill="#fafbfc" stroke="#fafbfc" stroke-linejoin="bevel" stroke-width="10"><rect width="151" height="51" stroke="none"/><rect x="5" y="5" width="141" height="41" fill="none"/></g></g><g transform="matrix(1, 0, 0, 1, -706, -380)" filter="url(#am)"><g transform="translate(706 380)" fill="#fafbfc" stroke="#fafbfc" stroke-linejoin="bevel" stroke-width="10"><rect width="151" height="51" stroke="none"/><rect x="5" y="5" width="141" height="41" fill="none"/></g></g><g transform="translate(1 1)" fill="none" stroke="#6f87d0" stroke-linejoin="bevel" stroke-width="10"><rect width="149" height="123" stroke="none"/><rect x="5" y="5" width="139" height="113" fill="none"/></g><g transform="translate(2 2)" fill="#fafbfc" stroke="#fafbfc" stroke-linejoin="bevel" stroke-width="10"><rect width="147" height="121" stroke="none"/><rect x="5" y="5" width="137" height="111" fill="none"/></g><text transform="translate(74 69)" fill="#6f87d0" font-size="18" font-family="Optima-Regular, Optima"><tspan x="-51.354" y="0">ITEM DETAIL</tspan></text></g><line x2="28" transform="translate(548.506 397.835)" fill="none" stroke="#6f87d0" stroke-width="1" opacity="0.502"/><g transform="translate(389.506 335.835)"><g transform="matrix(1, 0, 0, 1, -511, -716)" filter="url(#ao)"><g transform="translate(511 716)" fill="#fafbfc" stroke="#fafbfc" stroke-linejoin="bevel" stroke-width="10"><rect width="151" height="51" stroke="none"/><rect x="5" y="5" width="141" height="41" fill="none"/></g></g><g transform="matrix(1, 0, 0, 1, -511, -716)" filter="url(#aq)"><g transform="translate(511 716)" fill="#fafbfc" stroke="#fafbfc" stroke-linejoin="bevel" stroke-width="10"><rect width="151" height="51" stroke="none"/><rect x="5" y="5" width="141" height="41" fill="none"/></g></g><g transform="translate(1 1)" fill="none" stroke="#6f87d0" stroke-linejoin="bevel" stroke-width="10"><rect width="149" height="123" stroke="none"/><rect x="5" y="5" width="139" height="113" fill="none"/></g><g transform="translate(2 2)" fill="#fafbfc" stroke="#fafbfc" stroke-linejoin="bevel" stroke-width="10"><rect width="147" height="121" stroke="none"/><rect x="5" y="5" width="137" height="111" fill="none"/></g><text transform="translate(75 57)" fill="#6f87d0" font-size="18" font-family="Optima-Regular, Optima"><tspan x="-24.003" y="0">SHOP</tspan><tspan x="-52.515" y="22">MEAL PLANS</tspan></text></g><line x2="28" transform="translate(548.506 230.835)" fill="none" stroke="#6f87d0" stroke-width="1" opacity="0.502"/><g transform="translate(389.506 167.835)"><g transform="matrix(1, 0, 0, 1, -511, -548)" filter="url(#as)"><g transform="translate(511 548)" fill="#fafbfc" stroke="#fafbfc" stroke-linejoin="bevel" stroke-width="10"><rect width="151" height="51" stroke="none"/><rect x="5" y="5" width="141" height="41" fill="none"/></g></g><g transform="matrix(1, 0, 0, 1, -511, -548)" filter="url(#au)"><g transform="translate(511 548)" fill="#fafbfc" stroke="#fafbfc" stroke-linejoin="bevel" stroke-width="10"><rect width="151" height="51" stroke="none"/><rect x="5" y="5" width="141" height="41" fill="none"/></g></g><g transform="translate(1 1)" fill="none" stroke="#6f87d0" stroke-linejoin="bevel" stroke-width="10"><rect width="149" height="123" stroke="none"/><rect x="5" y="5" width="139" height="113" fill="none"/></g><g transform="translate(2 2)" fill="#fafbfc" stroke="#fafbfc" stroke-linejoin="bevel" stroke-width="10"><rect width="147" height="121" stroke="none"/><rect x="5" y="5" width="137" height="111" fill="none"/></g><text transform="translate(75 57)" fill="#6f87d0" font-size="18" font-family="Optima-Regular, Optima"><tspan x="-24.003" y="0">SHOP</tspan><tspan x="-49.005" y="22">PROGRAMS</tspan></text></g><line x2="28" transform="translate(548.506 62.835)" fill="none" stroke="#6f87d0" stroke-width="1" opacity="0.502"/><g transform="translate(389.506 -0.165)"><g transform="matrix(1, 0, 0, 1, -511, -380)" filter="url(#aw)"><g transform="translate(511 380)" fill="#fafbfc" stroke="#fafbfc" stroke-linejoin="bevel" stroke-width="10"><rect width="151" height="51" stroke="none"/><rect x="5" y="5" width="141" height="41" fill="none"/></g></g><g transform="matrix(1, 0, 0, 1, -511, -380)" filter="url(#ay)"><g transform="translate(511 380)" fill="#fafbfc" stroke="#fafbfc" stroke-linejoin="bevel" stroke-width="10"><rect width="151" height="51" stroke="none"/><rect x="5" y="5" width="141" height="41" fill="none"/></g></g><g transform="translate(1 1)" fill="none" stroke="#6f87d0" stroke-linejoin="bevel" stroke-width="10"><rect width="149" height="123" stroke="none"/><rect x="5" y="5" width="139" height="113" fill="none"/></g><g transform="translate(2 2)" fill="#fafbfc" stroke="#fafbfc" stroke-linejoin="bevel" stroke-width="10"><rect width="147" height="121" stroke="none"/><rect x="5" y="5" width="137" height="111" fill="none"/></g><text transform="translate(75 57)" fill="#6f87d0" font-size="18" font-family="Optima-Regular, Optima"><tspan x="-24.003" y="0">SHOP</tspan><tspan x="-51.012" y="22">EQUIPMENT</tspan></text></g><line x1="111.811" y1="97.745" transform="translate(270.664 300.245)" fill="none" stroke="#6f87d0" stroke-width="1" opacity="0.502"/><line x2="28" transform="translate(353.506 230.835)" fill="none" stroke="#6f87d0" stroke-width="1" opacity="0.502"/><line x1="111.811" y2="97.745" transform="translate(270.664 62.213)" fill="none" stroke="#6f87d0" stroke-width="1" opacity="0.502"/><g transform="translate(194.506 167.835)"><g transform="matrix(1, 0, 0, 1, -316, -548)" filter="url(#ba)"><g transform="translate(316 548)" fill="#fafbfc" stroke="#fafbfc" stroke-linejoin="bevel" stroke-width="10"><rect width="151" height="51" stroke="none"/><rect x="5" y="5" width="141" height="41" fill="none"/></g></g><g transform="matrix(1, 0, 0, 1, -316, -548)" filter="url(#bc)"><g transform="translate(316 548)" fill="#fafbfc" stroke="#fafbfc" stroke-linejoin="bevel" stroke-width="10"><rect width="151" height="51" stroke="none"/><rect x="5" y="5" width="141" height="41" fill="none"/></g></g><g transform="translate(1 1)" fill="none" stroke="#6f87d0" stroke-linejoin="bevel" stroke-width="10"><rect width="149" height="123" stroke="none"/><rect x="5" y="5" width="139" height="113" fill="none"/></g><g transform="translate(2 2)" fill="#fafbfc" stroke="#fafbfc" stroke-linejoin="bevel" stroke-width="10"><rect width="147" height="121" stroke="none"/><rect x="5" y="5" width="137" height="111" fill="none"/></g><text transform="translate(76 69)" fill="#6f87d0" font-size="19" font-family="Optima-Regular, Optima"><tspan x="-25.337" y="0">SHOP</tspan></text></g><line x2="28" transform="translate(159.506 230.835)" fill="none" stroke="#6f87d0" stroke-width="1" opacity="0.502"/><g transform="translate(-0.494 167.835)"><g transform="matrix(1, 0, 0, 1, -121, -548)" filter="url(#be)"><g transform="translate(121 548)" fill="#fafbfc" stroke="#fafbfc" stroke-linejoin="bevel" stroke-width="10"><rect width="151" height="51" stroke="none"/><rect x="5" y="5" width="141" height="41" fill="none"/></g></g><g transform="matrix(1, 0, 0, 1, -121, -548)" filter="url(#bg)"><g transform="translate(121 548)" fill="#fafbfc" stroke="#fafbfc" stroke-linejoin="bevel" stroke-width="10"><rect width="151" height="51" stroke="none"/><rect x="5" y="5" width="141" height="41" fill="none"/></g></g><g transform="translate(1 1)" fill="none" stroke="#6f87d0" stroke-linejoin="bevel" stroke-width="10"><rect width="149" height="123" stroke="none"/><rect x="5" y="5" width="139" height="113" fill="none"/></g><g transform="translate(2 2)" fill="#fafbfc" stroke="#fafbfc" stroke-linejoin="bevel" stroke-width="10"><rect width="147" height="121" stroke="none"/><rect x="5" y="5" width="137" height="111" fill="none"/></g><text transform="translate(75 57)" fill="#6f87d0" font-size="18" font-family="Optima-Regular, Optima"><tspan x="-36.009" y="0">LOGIN / </tspan><tspan x="-35.514" y="22">SIGN UP</tspan></text></g></g><text transform="translate(422.965 319.409)" fill="#2c2c2c" font-size="60" font-family="Optima-Regular, Optima"><tspan x="-250.98" y="0">User Flow Diagram</tspan></text></g></g></svg>