<svg xmlns="http://www.w3.org/2000/svg" xmlns:xlink="http://www.w3.org/1999/xlink" width="1920" height="2087" viewBox="0 0 1920 2087"><defs><linearGradient id="a" x1="0.612" y1="0.5" x2="0.188" y2="0.5" gradientUnits="objectBoundingBox"><stop offset="0" stop-color="#fbf9f6"/><stop offset="1" stop-color="#eb8474"/></linearGradient><linearGradient id="b" x1="0.388" x2="0.812" xlink:href="#a"/><linearGradient id="c" x1="0.207" y1="0.5" x2="0.417" y2="0.5" gradientUnits="objectBoundingBox"><stop offset="0" stop-color="#eb8474"/><stop offset="1" stop-color="#fbf9f6"/></linearGradient><linearGradient id="d" x1="0.793" x2="0.583" xlink:href="#c"/><clipPath id="f"><rect width="1920" height="2087"/></clipPath></defs><g id="e" clip-path="url(#f)"><rect width="1920" height="2087" fill="#fff"/><rect width="1920" height="2087" fill="#fbf9f6"/><g transform="translate(0 154)"><rect width="260" height="184" rx="10" transform="translate(1244 1649)" fill="#f2beb4" opacity="0.498"/><text transform="translate(1374 1754)" fill="#2d2d2d" stroke="#2e2e2e" stroke-width="0.5" font-size="35" font-family="FranKleinBook"><tspan x="-44.853" y="0">Today</tspan></text><g transform="translate(1242.25 1732) rotate(90)"><line y1="136" transform="translate(9.5 13.25)" fill="none" stroke="#2d2d2d" stroke-linecap="round" stroke-width="2"/><path d="M7.986,1.753a2,2,0,0,1,3.027,0l5.13,5.94A2,2,0,0,1,14.63,11H4.37A2,2,0,0,1,2.856,7.693Z" fill="#2d2d2d"/></g><rect width="260" height="184" rx="10" transform="translate(830 1649)" fill="#f2beb4" opacity="0.498"/><text transform="translate(883 1694)" fill="#2d2d2d" stroke="#2e2e2e" stroke-width="0.5" font-size="35" font-family="FranKleinBook"><tspan x="13.94" y="32">Set Your </tspan><tspan x="37.04" y="82">Cycle</tspan></text><g transform="translate(1502.5 782) rotate(90)"><line y2="136" transform="translate(959.5 675.25)" fill="none" stroke="#2d2d2d" stroke-linecap="round" stroke-width="2"/><path d="M7.986,1.753a2,2,0,0,1,3.027,0l5.13,5.94A2,2,0,0,1,14.63,11H4.37A2,2,0,0,1,2.856,7.693Z" transform="translate(969 824.5) rotate(180)" fill="#2d2d2d"/></g><rect width="260" height="184" rx="10" transform="translate(416 1649)" fill="#f2beb4" opacity="0.498"/><text transform="translate(424 1692)" fill="#2d2d2d" stroke="#2e2e2e" stroke-width="0.5" font-size="35" font-family="FranKleinBook"><tspan x="34.78" y="32">The Phases </tspan><tspan x="47.345" y="82">Explained</tspan></text><g transform="translate(0 822)"><line y2="72" transform="translate(959.5 740)" fill="none" stroke="#2d2d2d" stroke-linecap="round" stroke-width="2"/><path d="M7.986,1.753a2,2,0,0,1,3.027,0l5.13,5.94A2,2,0,0,1,14.63,11H4.37A2,2,0,0,1,2.856,7.693Z" transform="translate(969 824.5) rotate(180)" fill="#2d2d2d"/></g><rect width="260" height="184" rx="10" transform="translate(830 1375)" fill="#f2beb4" opacity="0.498"/><text transform="translate(849 1423)" fill="#2d2d2d" stroke="#2e2e2e" stroke-width="0.5" font-size="35" font-family="FranKleinBook"><tspan x="70.54" y="32">Cycle </tspan><tspan x="41.735" y="82">Calendar</tspan></text><g transform="translate(1502.5 508) rotate(90)"><line y2="136" transform="translate(959.5 675.25)" fill="none" stroke="#2d2d2d" stroke-linecap="round" stroke-width="2"/><path d="M7.986,1.753a2,2,0,0,1,3.027,0l5.13,5.94A2,2,0,0,1,14.63,11H4.37A2,2,0,0,1,2.856,7.693Z" transform="translate(969 824.5) rotate(180)" fill="#2d2d2d"/></g><rect width="260" height="184" rx="10" transform="translate(416 1375)" fill="#f2beb4" opacity="0.498"/><text transform="translate(546 1480)" fill="#2d2d2d" stroke="#2e2e2e" stroke-width="0.5" font-size="35" font-family="FranKleinBook"><tspan x="-74.725" y="0">All Rituals</tspan></text><rect width="260" height="184" rx="10" transform="translate(1244 1101)" fill="#f2beb4" opacity="0.498"/><text transform="translate(1374 1206)" fill="#2d2d2d" stroke="#2e2e2e" stroke-width="0.5" font-size="35" font-family="FranKleinBook"><tspan x="-72.555" y="0">Statistics</tspan></text><g transform="translate(1242.25 1183) rotate(90)"><line y1="136" transform="translate(9.5 13.25)" fill="none" stroke="#2d2d2d" stroke-linecap="round" stroke-width="2"/><path d="M7.986,1.753a2,2,0,0,1,3.027,0l5.13,5.94A2,2,0,0,1,14.63,11H4.37A2,2,0,0,1,2.856,7.693Z" fill="#2d2d2d"/></g><g transform="translate(0 548)"><line y2="72" transform="translate(959.5 740)" fill="none" stroke="#2d2d2d" stroke-linecap="round" stroke-width="2"/><path d="M7.986,1.753a2,2,0,0,1,3.027,0l5.13,5.94A2,2,0,0,1,14.63,11H4.37A2,2,0,0,1,2.856,7.693Z" transform="translate(969 824.5) rotate(180)" fill="#2d2d2d"/></g><rect width="260" height="184" rx="10" transform="translate(830 1101)" fill="#f2beb4" opacity="0.498"/><text transform="translate(960 1206)" fill="#2d2d2d" stroke="#2e2e2e" stroke-width="0.5" font-size="35" font-family="FranKleinBook"><tspan x="-45.955" y="0">Home</tspan></text><g transform="translate(1502.5 233) rotate(90)"><line y2="136" transform="translate(959.5 675.25)" fill="none" stroke="#2d2d2d" stroke-linecap="round" stroke-width="2"/><path d="M7.986,1.753a2,2,0,0,1,3.027,0l5.13,5.94A2,2,0,0,1,14.63,11H4.37A2,2,0,0,1,2.856,7.693Z" transform="translate(969 824.5) rotate(180)" fill="#2d2d2d"/></g><path d="M10,0H250a10,10,0,0,1,10,10V174a10,10,0,0,1-10,10H10A10,10,0,0,1,0,174V10A10,10,0,0,1,10,0Z" transform="translate(416 1101)" fill="#f2beb4" opacity="0.498"/><text transform="translate(465 1149)" fill="#2d2d2d" stroke="#2e2e2e" stroke-width="0.5" font-size="35" font-family="FranKleinBook"><tspan x="14.762" y="32">Add/Edit </tspan><tspan x="37.443" y="82">Ritual</tspan></text><g transform="translate(0 274)"><line y2="72" transform="translate(959.5 740)" fill="none" stroke="#2d2d2d" stroke-linecap="round" stroke-width="2"/><path d="M7.986,1.753a2,2,0,0,1,3.027,0l5.13,5.94A2,2,0,0,1,14.63,11H4.37A2,2,0,0,1,2.856,7.693Z" transform="translate(969 824.5) rotate(180)" fill="#2d2d2d"/></g><path d="M10,0H250a10,10,0,0,1,10,10V174a10,10,0,0,1-10,10H10A10,10,0,0,1,0,174V10A10,10,0,0,1,10,0Z" transform="translate(830 827)" fill="#f2beb4" opacity="0.498"/><text transform="translate(960 932)" fill="#2d2d2d" stroke="#2e2e2e" stroke-width="0.5" font-size="35" font-family="FranKleinBook"><tspan x="-40.95" y="0">Login</tspan></text><line y2="72" transform="translate(959.5 740)" fill="none" stroke="#2d2d2d" stroke-linecap="round" stroke-width="2"/><path d="M7.986,1.753a2,2,0,0,1,3.027,0l5.13,5.94A2,2,0,0,1,14.63,11H4.37A2,2,0,0,1,2.856,7.693Z" transform="translate(969 824.5) rotate(180)" fill="#2d2d2d"/><path d="M10,0H250a10,10,0,0,1,10,10V174a10,10,0,0,1-10,10H10A10,10,0,0,1,0,174V10A10,10,0,0,1,10,0Z" transform="translate(830 553)" fill="#f2beb4" opacity="0.498"/><text transform="translate(960 658)" fill="#2d2d2d" stroke="#2e2e2e" stroke-width="0.5" font-size="35" font-family="FranKleinBook"><tspan x="-89.075" y="0">Onboarding</tspan></text></g><text transform="translate(960 527)" fill="#2d2d2d" stroke="#2e2e2e" stroke-width="0.5" font-size="70" font-family="GildaDisplay-Regular, Gilda Display"><tspan x="-381.57" y="0">USER FLOW DIAGRAM</tspan></text><g transform="translate(286.976 100)" opacity="0.247"><ellipse cx="114.5" cy="114" rx="114.5" ry="114" transform="translate(556.024 0)" fill="#eb8474"/><ellipse cx="116" cy="115" rx="116" ry="115" transform="translate(225.024 99)" fill="url(#a)"/><circle cx="115" cy="115" r="115" transform="translate(884.024 99)" fill="url(#b)"/><ellipse cx="114" cy="114.5" rx="114" ry="114.5" transform="translate(0.024 293)" fill="url(#c)"/><circle cx="114.5" cy="114.5" r="114.5" transform="translate(1110.024 293)" fill="url(#d)"/></g></g></svg>